<svg xmlns="http://www.w3.org/2000/svg">
  <symbol id="ring" fill="#0074D9" viewBox="0 0 150 150">
    <circle class="ring" r="65" cx="75" cy="75" stroke-width="5" stroke="#ffdc00" fill="none"></circle>
    <path d="M33.442.524L.252 4.004v60.832l33.19 19.747L66.63 64.836V4.004L33.79.558l-.348-.035zM62.29 62.366L33.442 79.53 4.594 62.367V37.433L33.32 54.53l.046 3.097L13.66 45.9l-.028 3.007 19.783 11.89.05 3.18L13.69 52.213l-.028 3.008 19.783 11.89 19.972-11.95v-3.022l-.025.014V42.33l8.898-5.316v25.352h.002zm-.024-28.587l-7.893 4.65-3.643 2.147L33.355 30.24l-.03 3.008 14.853 8.83-.132.078-.32.19-2.11 1.243-12.26-7.297-.03 3.01 9.68 5.753-2.285 1.528-.054.033-7.31-4.308-.03 3.007 4.798 2.825-4.887 2.933L4.66 34.088l28.62-17.204v.003L62.266 33.78zm.023-3.027L33.287 13.655v-.004l-.004.004-.004-.003v.006L4.595 30.736V7.913l28.848-3.025L62.29 7.913v22.84z" stroke="none" transform="translate(40, 35)"/>
  </symbol>
</svg>
